# xmcd
#
# Track frame offsets:
#	150
#	63147
#	94337
#	130209
#	144960
#	164726
#	196641
#
# Disc length: 2875 seconds
#
# Revision: 1
# Processed by: cddbd v1.5.1PL2 Copyright (c) Steve Scherf et al.
# Submitted via: EasyCDDAExtractor 9.0.0.1
#
DISCID=5b0b3907
DTITLE=Blue Oyster Cult - Old Waldorf San Fransisco 08-09-80 Disc 2
DYEAR=1980
DGENRE=Hard Rock
TTITLE0=Godzilla
TTITLE1=5 guitars
TTITLE2=Born To Be Wild
TTITLE3=Soft White Underbelly
TTITLE4=Roadhouse Blues
TTITLE5=(Don't Fear) The Reaper
TTITLE6=Hungry Boys 
EXTD=
EXTT0=
EXTT1=
EXTT2=
EXTT3=
EXTT4=
EXTT5=
EXTT6=
PLAYORDER=
